<svg width="68" height="67" viewBox="0 0 68 67" fill="none" xmlns="http://www.w3.org/2000/svg">
<path d="M50.6667 6.66667H64C64.8841 6.66667 65.7319 7.01786 66.357 7.64298C66.9822 8.2681 67.3333 9.11595 67.3333 10V63.3333C67.3333 64.2174 66.9822 65.0652 66.357 65.6904C65.7319 66.3155 64.8841 66.6667 64 66.6667H4C3.11595 66.6667 2.2681 66.3155 1.64298 65.6904C1.01786 65.0652 0.666668 64.2174 0.666668 63.3333V10C0.666668 9.11595 1.01786 8.2681 1.64298 7.64298C2.2681 7.01786 3.11595 6.66667 4 6.66667H17.3333V0H24V6.66667H44V0H50.6667V6.66667ZM44 13.3333H24V20H17.3333V13.3333H7.33333V26.6667H60.6667V13.3333H50.6667V20H44V13.3333ZM60.6667 33.3333H7.33333V60H60.6667V33.3333Z" fill="#DC1637"/>
</svg>
